Patient4_TMGait_0pt3_03_right_30_EMG.mot
version=1
nRows=33
nColumns=33
inDegrees=no
endheader
time	1LAddLong	2LGlutMax	3LGlutMed	4LIliopsoas	5LSemiMemb	6LBicFemLong	7LRecFem	8LVastMed	9LVastLat	10LGasMed	11LTibAnt	12lTibPost	13LPeroneusLong	14LSol	15LExtDigLong	16LFlexDigLong	17RAddLong	18RGlutMax	19RGlutMed	20RIliopsoas	21RSemiMemb	22RBicFemLong	23RRecFem	24RVastMed	25RVastLat	26RGasMed	27RTibAnt	28RTibPost	29RPeroneusLong	30RSol	31RExtDigLong	32RFlexDigLong
57.285	0.022583	0.025787	-0.018311	0.005035	0.091553	-0.049744	0.026398	-0.006714	-0.088959	-0.022888	0.02655	0.042114	0.048218	-0.014038	0.027924	0.007782	0.017853	0.10971	0.029449	0.075073	0.18494	-0.031433	0.015564	0.10849	-0.064545	-0.000458	0.04364	0.004272	-0.082245	0.14999	0.003052	-0.01358
57.286	0.022278	-0.007019	-0.009766	0.016937	0.11475	-0.04776	0.074463	-0.001984	-0.19028	-0.038757	0.032501	0.040588	0.083466	-0.007324	0.026245	0.012054	0.014954	0.059814	0.2536	0.066833	0.079498	-0.023193	0.082092	0.079956	-0.000305	0.002289	0.058289	0.024872	-0.1471	0.044403	0.001221	-0.006409
57.287	0.01236	0.028687	-0.02121	0.022125	0.064545	0.005798	0.093079	-0.005188	-0.19196	-0.019226	0.043945	0.041809	0.10559	-0.013428	0.022888	0.013885	0.007629	0.027771	-0.27512	0.074921	0.053711	-0.038452	-0.056763	-0.001831	-0.0177	0.002594	0.040741	0.000153	-0.098114	-0.054626	0.000153	-0.001831
57.288	-0.020294	-0.009613	-0.026245	0.015564	0.048065	0.037384	0.078125	0.001678	-0.13046	0.001984	0.029297	0.050507	0.083923	-0.020447	0.0177	0.016022	0.018311	0.034943	-0.43381	-0.030975	0.013123	-0.022736	-0.069275	0.009918	-0.012817	0.001984	0.028839	-0.00824	0.21637	-0.13794	0.003662	-0.000153
57.289	-0.00885	0.009613	-0.019531	-0.000916	0.049744	0.004883	0.024261	0.000153	-0.096741	0.022583	0.001831	0.06897	0.07309	-0.016632	0.027618	0.018616	0.007629	0.032806	-0.41122	-0.077209	-0.006409	-0.029297	0.12665	-0.039215	0.010223	0.004272	0.005035	-0.018005	0.36972	-0.1091	0.004272	-0.009613
57.29	-0.027618	0.036316	-0.021515	0.001831	0.054474	0.032501	0.000916	0.010376	-0.08316	0.025024	-0.02182	0.044861	0.037231	0.010223	-0.012512	-0.006409	0.018158	0.085602	-0.23453	-0.083618	-0.040283	-0.030212	0.14923	0.005035	0.10437	-0.001831	0.007935	0.00061	0.099182	-0.088196	0.002594	-0.018616
57.291	-0.026855	0.042572	-0.029755	-0.001831	0.051117	0.049591	-0.013428	0.015564	-0.042114	0.019836	-0.020905	0.041962	0.018921	0.027618	0.13825	0.004425	0.01297	0.052948	0.17777	-0.019989	-0.039063	-0.014038	-0.035858	0.098724	0.18845	-0.002289	0.023499	-0.007629	-0.45456	0.016174	0.002594	-0.012512
57.292	-0.011292	0.04837	-0.039673	-0.008087	0.037689	0.019226	-0.050964	0.007782	-0.007629	0.00351	-0.052948	0.058289	0.062408	0.037079	-0.018768	-0.007172	0.010529	-0.042114	0.39917	0.032349	0.004425	-0.003052	-0.20218	0.11047	0.19196	-0.010223	0.051575	-0.013123	-0.21835	-0.032196	0.004883	-0.020599
57.293	0.019684	0.055542	-0.037231	0.003967	0.069885	-0.041199	-0.10574	0.007629	0.07019	-0.04715	-0.11368	0.045013	0.15305	0.062103	0.00885	0.000916	-0.005341	-0.007019	0.457	0.17868	0.081329	-0.024414	-0.10544	0.063019	0.11093	-0.007324	0.048218	-0.00824	-0.11993	-0.058441	0.006104	-0.019684
57.294	0.035706	0.06134	-0.015564	-0.003967	0.047302	-0.051575	-0.003357	0.007019	0.065918	-0.065613	-0.046234	0.037079	0.18646	0.072021	-0.054169	-0.005646	-0.000305	0.038452	0.11398	0.23178	0.041351	-0.068665	-0.006714	0.022736	0.067596	-0.001068	0.028839	-0.007324	-0.14008	-0.064697	0.001984	-0.009155
57.295	0.02533	0.032043	0.003967	0.011597	-0.020905	-0.028076	0.025635	0.000916	0.066376	-0.04303	-0.002899	0.034485	0.075073	0.03952	0.004272	0.002747	0.013275	-0.01236	-0.35996	0.12466	-0.021667	-0.061493	-0.032501	-0.000458	0.002136	-0.002441	0.022125	-0.007629	-0.16556	-0.066071	0.004272	-0.011444
57.296	0.01358	0.033722	0.000763	0.005798	-0.036621	0.045319	0.024872	0.007782	0.046692	0.004425	0.055695	0.028534	-0.006866	0.099335	0.007019	0	0.024719	-0.053406	-0.11612	-0.028687	-0.087433	-0.061646	0.072937	-0.040131	-0.031738	-0.005493	0.037384	-0.004578	-0.063324	-0.12039	0.006866	-0.016327
57.297	-0.001831	-0.011444	-0.000458	-0.009308	-0.078888	0.050812	0.032806	0.007782	0.029755	-0.000916	0.14984	0.01297	-0.015869	0.10941	0.072479	-0.010223	0.014648	-0.048981	0.38498	-0.09201	-0.052948	-0.06073	0.09964	-0.098114	-0.018158	0.011292	-0.001526	-0.006104	0.067139	-0.15503	0.003052	-0.011902
57.298	-0.005493	0.031738	-0.000916	0.007477	-0.11398	0.012665	0.040588	0.003204	0.010376	-0.000458	0.21988	0.023956	0.055237	0.075989	0.004272	0.002136	-0.006256	-0.069122	-0.015717	-0.083466	0.036926	-0.071716	-0.040741	-0.05188	-0.078735	0.014343	0.005798	-0.00824	-0.033417	-0.090485	0.005951	-0.011444
57.299	-0.007019	0.010223	-0.011292	0.027771	-0.15823	-0.035553	0.011597	0.014343	-0.004272	-0.001526	0.25436	0.019531	0.001678	0.097046	-0.18524	-0.018768	0.00824	-0.085602	-0.087891	-0.035553	0.077515	-0.033112	-0.12268	-0.029144	-0.095825	0.014801	0.000153	-0.010681	0.34271	-0.018158	0.003967	-0.004883
57.3	-0.002289	0.045471	-0.006104	0.014343	-0.11292	-0.11902	-0.015564	0.015717	0.001678	0.0177	0.14618	0.018616	-0.007019	0.092621	-0.14557	-0.014648	0.014191	-0.019226	-0.006866	-0.080566	0.093384	-0.011597	-0.071259	-0.067902	-0.05127	0.020294	0.031738	-0.010681	-0.020599	-0.037384	0.002747	-0.010834
57.301	0.001526	0.022583	-0.036163	0.005798	-0.059357	-0.12222	0.006561	0.017395	0.017395	0.007172	0.074463	0.016785	-0.023346	0.082855	-0.12863	-0.010834	0.015411	0.007782	0.31952	-0.05188	-0.012665	0.006409	-0.16022	-0.11673	-0.048523	0.029602	0.085144	-0.012054	-0.83145	-0.02594	0.008545	-0.002136
57.302	0.01709	0.024719	-0.039368	0.001678	-0.022736	-0.096893	-0.018463	-0.024414	0.040741	-0.013123	-0.13382	0.013733	-0.022736	0.1239	0.38605	-0.010986	0.014191	-0.029297	-0.005341	0.044098	0.059662	-0.021667	-0.17792	0.019684	-0.004425	0.033875	0.1059	-0.00885	-1.3734	-0.009003	0.003052	-0.014648
57.303	0.035858	0.019836	-0.019379	0.018616	0.04715	-0.083313	-0.026703	0.047302	0.081329	-0.016479	-0.25467	0.001068	0.045929	0.1152	0.10773	-0.011139	0.014496	-0.04715	0.11215	0.004425	0.14847	-0.018921	0.035095	0.012512	-0.044861	0.019531	0.094757	-0.003357	-0.98709	-0.051117	0.010376	-0.016937
57.304	0.049896	0.006866	-0.025482	0.006104	0.092468	-0.09201	-0.032501	-0.00946	0.071411	-0.028992	-0.15411	-0.001373	0.013275	0.15076	-0.14526	-0.009155	-0.013123	-0.018158	0.27786	0.031128	-0.03952	0.013428	0.10071	0.08194	-0.020142	-0.007172	0.10269	-0.017548	-0.92346	-0.18555	0.005493	-0.014801
57.305	0.049744	-0.007477	-0.026855	0.003967	0.055237	-0.071564	-0.036926	-0.009613	0.069885	-0.026398	-0.061798	-0.020905	-0.033569	0.1326	0.1152	-0.028229	-0.023651	-0.016785	-0.15076	0.063629	-0.32349	0.018463	0.13306	0.08667	-0.041351	-0.012665	-0.00824	-0.09552	-0.34409	-0.31189	0.002747	-0.012817
57.306	0.036469	0.056152	-0.037079	0.013123	0.040436	-0.054474	0.051422	-0.020752	0.02533	-0.04776	-0.024567	-0.032349	-0.064697	0.121	0.041046	-0.039825	-0.011292	-0.034332	-0.36179	0.050659	-0.007935	-0.090942	0.11551	0.034637	-0.063171	-0.029755	-0.10757	-0.22659	0.51468	-0.77499	0.003357	-0.016937
57.307	0.010223	0.040436	-0.037537	0.018463	0.049896	-0.007477	0.068665	-0.01236	-0.011597	-0.033875	-0.026245	-0.010376	-0.063171	0.11276	-0.18478	-0.0383	-0.007477	-0.012207	0.03952	0.054016	0.09201	-0.027771	0.043335	0.040588	-0.024261	-0.036621	-0.10788	-0.54749	0.82626	-1.1867	0.003815	-0.016479
57.308	-0.00824	0.053406	-0.063019	0.035095	0.020294	-0.021973	0.085144	-0.007477	-0.007935	-0.05722	-0.013123	-0.01709	-0.13184	0.097351	-0.34897	-0.041656	0.010681	-0.075531	0.59631	0.004578	-0.08606	0.019989	0.12344	0.11597	0.077972	-0.051727	-0.060425	0.21347	0.59998	-1.1763	0.003967	-0.022125
57.309	-0.000916	0.054321	-0.078583	0.026093	-0.003967	-0.022888	0.056915	-0.003357	-0.032196	-0.061493	-0.008545	-0.029602	-0.081482	0.081482	-0.23438	-0.048523	0.031281	-0.15167	0.38162	0.006714	-0.20371	0.009308	0.16907	0.11932	0.047302	-0.038757	-0.039215	0.46219	0.44952	0.057983	0.007172	-0.016022
57.31	-0.004578	0.071869	-0.076752	0.003967	0.001221	-0.013733	0.03006	-0.005493	-0.016327	-0.031433	0.018768	-0.031128	-0.042572	0.050812	-0.20386	-0.052643	0.041809	-0.096436	-0.027924	-0.015717	-0.25467	-0.040894	0.03006	0.061493	0.056305	-0.045929	-0.033264	0.2388	0.3479	1.2415	0.002747	-0.023499
57.311	0.003052	0.093689	-0.098419	-0.001221	0.001984	-0.053558	0.023193	-0.015411	-0.017548	-0.03479	0.024109	-0.030212	-0.065308	0.009308	-0.15625	-0.069427	-0.014343	-0.084686	0.030365	-0.02243	0.19913	-0.056458	-0.062408	-0.023651	0.12665	-0.042114	-0.042572	0.000763	0.50354	0.41245	0.002136	-0.024872
57.312	-0.006104	0.10208	-0.056458	0.001984	-0.022278	0.002747	-0.025177	-0.009003	-0.014343	-0.043793	0.015259	-0.043793	-0.074768	0.036621	-0.056458	-0.055084	-0.006561	-0.085449	0.20996	-0.006256	0.13962	-0.087128	0.036011	-0.013428	0.04715	-0.03479	-0.011749	0.061646	0.55389	0.14465	-0.001831	-0.019531
57.313	0.004425	0.073547	0.034027	-0.003204	0.045013	0.00061	-0.045929	-0.009766	0.001526	-0.046539	0.022125	-0.047455	-0.12451	0.032959	0.031281	-0.069122	-0.009918	-0.089874	-0.057831	0.0383	0.06424	-0.13428	0.029755	-0.042877	0.007477	-0.020752	0.051727	0.07843	0.26093	0.76675	0.001221	-0.020447
57.314	0.009308	0.056305	0.011139	0.009155	0.035858	0.035248	-0.036774	-0.00473	0.009613	-0.021515	0.021362	-0.047607	-0.13473	0.064392	0.10361	-0.068512	-0.02121	-0.12924	-0.009766	0.011902	0.031128	-0.096283	-0.15762	-0.083923	0.063171	-0.002899	0.053711	0.051575	0.345	0.5629	0.002747	-0.00946
57.315	-0.003357	0.06424	0.025787	-0.008087	-0.02121	0.061493	0.011749	-0.022125	0.018463	-0.011902	0.013885	-0.054474	-0.13107	0.066681	0.12161	-0.0737	-0.00885	-0.081024	-0.039978	-0.010834	0.027008	-0.061646	-0.27237	-0.038605	0.082245	-0.004272	0.019836	0.022125	0.24979	0.13138	0.002289	-0.021362
57.316	-0.001984	0.049133	0.023804	-0.001831	-0.046234	0.060577	0.031738	-0.010376	-0.007629	-0.019989	0.005341	-0.052643	-0.098114	0.042419	0.11093	-0.077972	0.007629	-0.12619	0.053558	-0.03952	-0.022583	0.029144	-0.13931	-0.069733	0.1001	0.001984	-0.005646	-0.023804	-0.37857	0.57205	0.01236	-0.008545
57.317	0.001526	0.058441	0.009766	-0.019073	0.005951	0.057068	0.005493	-0.007172	-0.033875	-0.022583	0.010529	-0.06073	-0.12985	0.048065	0.088348	-0.071716	0.022125	-0.14908	0.061188	-0.053864	-0.040131	0.17075	-0.071106	0.12863	0.068665	0.013885	0.003967	-0.030365	-0.72784	0.43961	0.002594	-0.00824
